# xmcd
# Copyright (C) 1995-1998 Ti Kan
#
# Track frame offsets:
#       150
#       179393
#       210981
#
# Disc length: 3356 seconds
#
# Revision: 0
# Processed by: cddbd v1.5.1PL2 Copyright (c) Steve Scherf et al.
# Submitted via: CD-Transfer v1.0
#
DISCID=1f0d1a03
DTITLE=Albidj - Albidj In The Mix
DYEAR=1900
DGENRE=
TTITLE0=Apres Schi
TTITLE1=Latino
TTITLE2=Fetenhits
EXTD=
EXTT0=
EXTT1=
EXTT2=
PLAYORDER=
